<svg width="140" height="29" viewBox="0 0 140 29" fill="none" xmlns="http://www.w3.org/2000/svg">
<g clip-path="url(#clip0_13788_180292)">
<path d="M9.05494 7.66119L7.89197 11.8431L14.5486 7.63739L10.195 23.5066L14.6165 23.5102L21.048 0.070694" fill="#3395FF"/>
<path d="M1.89073 16.8388L0.0595093 23.5102H9.12185L12.8301 9.93865L1.89073 16.8388ZM33.3701 10.9652C33.1485 11.7695 32.7217 12.3604 32.0852 12.7377C31.4502 13.1142 30.559 13.3032 29.4086 13.3032H25.7535L27.0368 8.6286H30.6919C31.8408 8.6286 32.6302 8.81616 33.0585 9.1985C33.4867 9.58084 33.5901 10.1652 33.3701 10.9731V10.9652ZM37.1543 10.8721C37.6195 9.18407 37.4276 7.88557 36.5769 6.97661C35.7278 6.07487 34.2377 5.62039 32.1111 5.62039H23.954L19.0437 23.5182H23.0067L24.9856 16.3042H27.5847C28.1681 16.3042 28.6273 16.398 28.9626 16.5784C29.2985 16.7659 29.4957 17.0905 29.5562 17.5594L30.2636 23.5182H34.5094L33.8212 17.9634C33.6809 16.7226 33.0998 15.994 32.0786 15.7776C33.3804 15.4097 34.471 14.7965 35.3497 13.9453C36.2223 13.1003 36.8457 12.0412 37.1543 10.8793V10.8721ZM46.7875 17.1122C46.4552 18.3241 45.9457 19.2403 45.2568 19.8823C44.5671 20.5244 43.7431 20.8418 42.7817 20.8418C41.8026 20.8418 41.1387 20.5316 40.788 19.904C40.4365 19.2764 40.4247 18.3674 40.7511 17.1771C41.0774 15.9868 41.598 15.0562 42.3143 14.3853C43.0305 13.7144 43.8678 13.379 44.8292 13.379C45.7892 13.379 46.4463 13.7036 46.7786 14.3478C47.1183 14.9949 47.1257 15.9204 46.7934 17.1252L46.7875 17.1122ZM48.5242 10.7784L48.028 12.589C47.8138 11.9398 47.3981 11.4204 46.7838 11.0308C46.1679 10.6485 45.4059 10.4537 44.497 10.4537C43.382 10.4537 42.3113 10.7351 41.2849 11.2978C40.2586 11.8604 39.3577 12.654 38.5898 13.6784C37.8219 14.7027 37.2607 15.8642 36.8989 17.1699C36.5444 18.4828 36.4706 19.6298 36.6847 20.6254C36.9062 21.6281 37.3714 22.3928 38.0877 22.9266C38.8113 23.4677 39.7343 23.7346 40.864 23.7346C41.7618 23.739 42.6494 23.5493 43.4632 23.1791C44.2678 22.8245 44.9835 22.3026 45.5602 21.6497L45.0434 23.5369H48.8756L52.3749 10.7848H48.5352L48.5242 10.7784ZM66.146 10.7784H55.0014L54.2224 13.6206H60.707L52.1342 20.8562L51.4017 23.5254H62.9059L63.6849 20.6831H56.7366L65.4408 13.3393L66.146 10.7784ZM75.9556 17.0905C75.6108 18.3458 75.0991 19.2893 74.4234 19.904C73.7478 20.5244 72.9297 20.8346 71.969 20.8346C69.9606 20.8346 69.3004 19.5866 69.9857 17.0905C70.3253 15.8497 70.8393 14.917 71.526 14.2887C72.2127 13.6582 73.0448 13.3436 74.0232 13.3436C74.9831 13.3436 75.6315 13.656 75.9652 14.285C76.299 14.9127 76.296 15.8483 75.9556 17.0891V17.0905ZM78.1989 11.2581C77.3165 10.7214 76.1904 10.453 74.817 10.453C73.4266 10.453 72.1396 10.7199 70.9552 11.2538C69.7757 11.7842 68.7391 12.5761 67.9278 13.5665C67.0934 14.5693 66.4931 15.7451 66.1246 17.0869C65.7628 18.4237 65.7185 19.5974 65.9991 20.6023C66.2797 21.605 66.8704 22.3769 67.7565 22.9107C68.6499 23.4489 69.787 23.7165 71.1826 23.7165C72.556 23.7165 73.8335 23.4467 75.0075 22.91C76.1816 22.3704 77.1858 21.6043 78.0202 20.5943C78.8545 19.5887 79.4527 18.4157 79.8219 17.0739C80.191 15.7322 80.2354 14.5606 79.9548 13.5536C79.6742 12.5508 79.0908 11.7789 78.2121 11.2415L78.1989 11.2581ZM91.8799 14.1848L92.8619 10.7149C92.5297 10.5489 92.094 10.4624 91.5476 10.4624C90.6689 10.4624 89.8271 10.6745 89.0149 11.1044C88.3164 11.4694 87.7227 11.9845 87.2206 12.6294L87.7301 10.761L86.6173 10.7654H83.8852L80.3631 23.5124H84.2493L86.0768 16.8489C86.3426 15.88 86.8211 15.1175 87.5115 14.5765C88.1982 14.0333 89.0548 13.7613 90.0885 13.7613C90.7235 13.7613 91.3143 13.9034 91.8754 14.1869L91.8799 14.1848ZM102.693 17.1519C102.361 18.3422 101.859 19.2511 101.172 19.8787C100.485 20.5092 99.6581 20.8238 98.6982 20.8238C97.7383 20.8238 97.0811 20.5063 96.7341 19.8715C96.3797 19.2331 96.3723 18.3133 96.7046 17.1042C97.0368 15.8959 97.5463 14.9689 98.2478 14.3269C98.9493 13.6798 99.7763 13.3566 100.736 13.3566C101.681 13.3566 102.316 13.6885 102.656 14.3593C102.996 15.0302 103.003 15.9608 102.677 17.1511L102.693 17.1519ZM105.394 11.279C104.674 10.7163 103.755 10.435 102.64 10.435C101.663 10.435 100.732 10.6514 99.8486 11.0886C98.9663 11.525 98.25 12.1201 97.6999 12.8733L97.7132 12.7867L98.3652 10.7596H94.5698L93.6025 14.2872L93.573 14.4098L89.5857 28.9416H93.477L95.4855 21.6267C95.6848 22.2774 96.0909 22.7881 96.7112 23.1575C97.3315 23.5254 98.0972 23.7079 99.0076 23.7079C100.137 23.7079 101.215 23.441 102.238 22.9071C103.264 22.3719 104.151 21.6014 104.904 20.6059C105.657 19.6104 106.216 18.4561 106.572 17.1504C106.934 15.8425 107.008 14.676 106.801 13.6553C106.591 12.6331 106.125 11.8417 105.406 11.2819L105.394 11.279ZM118.302 17.0999C117.97 18.3046 117.46 19.228 116.773 19.8629C116.087 20.502 115.26 20.8201 114.3 20.8201C113.318 20.8201 112.653 20.5099 112.306 19.8823C111.952 19.2547 111.944 18.3458 112.269 17.1555C112.594 15.9652 113.112 15.0346 113.829 14.3637C114.545 13.6928 115.383 13.3581 116.344 13.3581C117.304 13.3581 117.954 13.6827 118.294 14.3247C118.633 14.9689 118.636 15.8945 118.305 17.1021L118.302 17.0999ZM120.037 10.7625L119.54 12.5732C119.326 11.9203 118.913 11.4009 118.3 11.015C117.679 10.6297 116.919 10.4379 116.011 10.4379C114.896 10.4379 113.819 10.7192 112.791 11.2819C111.765 11.8446 110.864 12.6338 110.096 13.6553C109.328 14.6768 108.767 15.8411 108.405 17.1468C108.047 18.4576 107.977 19.6068 108.191 20.6066C108.407 21.6021 108.873 22.3711 109.594 22.9079C110.313 23.4417 111.241 23.7115 112.37 23.7115C113.279 23.7115 114.146 23.5268 114.97 23.156C115.772 22.7998 116.486 22.2772 117.061 21.6245L116.545 23.5131H120.377L123.875 10.7661H120.043L120.037 10.7625ZM139.964 10.7668L139.966 10.7632H137.611C137.536 10.7632 137.469 10.7668 137.401 10.7683H136.178L135.551 11.6195L135.396 11.8215L135.329 11.9225L130.364 18.6805L129.337 10.7668H125.27L127.33 22.7924L122.782 28.9459H126.836L127.936 27.4216C127.967 27.3769 127.995 27.3394 128.032 27.2918L129.317 25.5099L129.354 25.4594L135.108 17.488L139.959 10.7791L139.966 10.7747H139.964V10.7668Z" fill="white"/>
</g>
<defs>
<clipPath id="clip0_13788_180292">
<rect width="140" height="29" fill="white"/>
</clipPath>
</defs>
</svg>
